<svg xmlns="http://www.w3.org/2000/svg" viewBox="0 0 8.5 11" width="8.5in" height="11in">
  <rect x="0" y="0" width="8.5" height="11" fill="#ffffff"/>

  <text x="4.25" y="0.55" text-anchor="middle" font-family="Arial, Helvetica, sans-serif" font-size="0.34" font-weight="700" fill="#111111">A-ZONE PRACTICE TARGET</text>
  <text x="4.25" y="0.82" text-anchor="middle" font-family="Arial, Helvetica, sans-serif" font-size="0.15" fill="#555555">Reduced scale — for close-range dry-fire &amp; diagnostic practice</text>

  <path d="M 1.3 1.6 L 7.2 1.6 L 7.2 3.0 L 6.5 3.0 L 6.5 9.3 L 2.0 9.3 L 2.0 3.0 L 1.3 3.0 Z" fill="#f2f2f2" stroke="#111111" stroke-width="0.03"/>

  <rect x="2.5" y="3.9" width="3.5" height="4.9" rx="0.4" fill="none" stroke="#111111" stroke-width="0.025" stroke-dasharray="0.12 0.08"/>

  <rect x="3.15" y="4.6" width="2.2" height="3.3" rx="0.25" fill="none" stroke="#111111" stroke-width="0.035"/>
  <line x1="4.05" y1="6.25" x2="4.45" y2="6.25" stroke="#111111" stroke-width="0.02"/>
  <line x1="4.25" y1="6.05" x2="4.25" y2="6.45" stroke="#111111" stroke-width="0.02"/>

  <text x="2.1" y="3.55" font-family="Arial, Helvetica, sans-serif" font-size="0.3" font-weight="700" fill="#111111" opacity="0.55">D</text>
  <text x="2.65" y="4.4" font-family="Arial, Helvetica, sans-serif" font-size="0.34" font-weight="700" fill="#111111" opacity="0.75">C</text>
  <text x="4.08" y="5.1" font-family="Arial, Helvetica, sans-serif" font-size="0.34" font-weight="700" fill="#111111">A</text>

  <line x1="0.5" y1="10.42" x2="1.5" y2="10.42" stroke="#111111" stroke-width="0.02"/>
  <line x1="0.5" y1="10.36" x2="0.5" y2="10.48" stroke="#111111" stroke-width="0.02"/>
  <line x1="1.5" y1="10.36" x2="1.5" y2="10.48" stroke="#111111" stroke-width="0.02"/>
  <text x="1.0" y="10.62" text-anchor="middle" font-family="Arial, Helvetica, sans-serif" font-size="0.12" fill="#555555">1 IN — verify scale before use</text>

  <text x="4.25" y="10.8" text-anchor="middle" font-family="Arial, Helvetica, sans-serif" font-size="0.12" fill="#777777">Range Roulette · Beyond The Barrel Concepts</text>
  <text x="4.25" y="10.96" text-anchor="middle" font-family="Arial, Helvetica, sans-serif" font-size="0.11" fill="#999999">Print at 100% / Actual Size — do not "fit to page"</text>
</svg>
